<?xml version="1.0" ?>
<!-- Uploaded to: SVG Repo, www.svgrepo.com, Generator: SVG Repo Mixer Tools -->
<svg width="800px" height="800px" viewBox="0 0 512 512" id="Layer_1" version="1.1" xml:space="preserve" xmlns="http://www.w3.org/2000/svg" xmlns:xlink="http://www.w3.org/1999/xlink">
<style type="text/css">
	.st0{fill:#D3D8D9;}
	.st1{fill:#EDEDED;}
	.st2{fill:#A8B1B3;}
	.st3{fill:#FFFFFF;}
	.st4{fill:#FB8A8A;}
	.st5{fill:#FCB1B1;}
	.st6{fill:#F96363;}
	.st7{fill:#BD90BE;}
	.st8{fill:#D3B5D3;}
	.st9{fill:#A76BA8;}
	.st10{fill:#FEE8B3;}
	.st11{fill:#FFF4D9;}
	.st12{fill:#516468;}
	.st13{fill:#7C8B8D;}
	.st14{fill:#7AD1F9;}
	.st15{fill:#7BDE9E;}
	.st16{fill:#FDDD8D;}
	.st17{fill:#A6E1FB;}
	.st18{fill:#50D27E;}
	.st19{fill:#FDD267;}
	.st20{fill:#4CC3F7;}
	.st21{fill:#A7E9BF;}
	.st22{fill:#333333;}
</style>
<g>
<g>
<g>
<g>
<g>
<g>
<g>
<rect class="st0" height="128.8" width="30.5" x="320" y="307.8"/>
</g>
<g>
<g>
<polygon class="st0" points="485.6,436.6 455.2,436.6 395.2,307.8 425.7,307.8         "/>
</g>
<g>
<polygon class="st0" points="275.3,307.8 215.4,436.6 184.9,436.6 244.9,307.8         "/>
</g>
</g>
</g>
<g>
<g>
<rect class="st1" height="21.8" width="30.5" x="320" y="307.8"/>
</g>
<g>
<g>
<polygon class="st1" points="435.8,329.6 405.4,329.6 395.2,307.8 425.7,307.8         "/>
</g>
<g>
<polygon class="st2" points="485.6,436.6 455.1,436.6 445,414.8 475.5,414.8         "/>
</g>
<g>
<polygon class="st2" points="184.9,436.6 215.4,436.6 225.6,414.8 195.1,414.8         "/>
</g>
<g>
<polygon class="st1" points="275.3,307.8 265.2,329.6 234.7,329.6 244.9,307.8         "/>
</g>
</g>
</g>
<g>
<g>
<rect class="st2" height="21.8" width="30.5" x="320" y="414.8"/>
</g>
</g>
</g>
<rect class="st3" height="201.8" width="313.3" x="178.6" y="71.7"/>
<g>
<g>
<path class="st4" d="M512,43.4v22.3c0,3.3-2.7,6-6,6H164.5c-3.3,0-6-2.7-6-6V43.4c0-3.3,2.7-6,6-6H506        C509.3,37.4,512,40.1,512,43.4z"/>
</g>
<g>
<path class="st5" d="M512,43.4v10.9c0-3.3-2.7-6-6-6H164.5c-3.3,0-6,2.7-6,6V43.4c0-3.3,2.7-6,6-6H506        C509.3,37.4,512,40.1,512,43.4z"/>
</g>
<g>
<path class="st6" d="M512,54.8v10.9c0,3.3-2.7,6-6,6H164.5c-3.3,0-6-2.7-6-6V54.8c0,3.3,2.7,6,6,6H506        C509.3,60.8,512,58.1,512,54.8z"/>
</g>
</g>
<g>
<g>
<path class="st4" d="M512,279.5v22.3c0,3.3-2.7,6-6,6H164.5c-3.3,0-6-2.7-6-6v-22.3c0-3.3,2.7-6,6-6H506        C509.3,273.5,512,276.2,512,279.5z"/>
</g>
<g>
<path class="st5" d="M512,279.5v10.9c0-3.3-2.7-6-6-6H164.5c-3.3,0-6,2.7-6,6v-10.9c0-3.3,2.7-6,6-6H506        C509.3,273.5,512,276.2,512,279.5z"/>
</g>
<g>
<path class="st6" d="M512,290.9v10.9c0,3.3-2.7,6-6,6H164.5c-3.3,0-6-2.7-6-6v-10.9c0,3.3,2.7,6,6,6H506        C509.3,296.8,512,294.2,512,290.9z"/>
</g>
</g>
</g>
<g>
<g>
<g>
<path class="st7" d="M0,241.1l0,81.6c0,14.2,11.5,25.7,25.7,25.7H134V229.7H224c5.9,0,11.3-2.4,15.2-6.3        c3.9-3.9,6.3-9.3,6.3-15.2c0-11.9-9.6-21.5-21.5-21.5H54.4C24.3,186.7,0,211.1,0,241.1z"/>
</g>
<g>
<path class="st8" d="M0,241.1l0,20.9c0-30,24.3-54.4,54.4-54.4H224c8.1,0,15.1,4.5,18.7,11.1c1.8-3.1,2.8-6.7,2.8-10.5        c0-11.9-9.6-21.5-21.5-21.5H54.4C24.4,186.7,0,211.1,0,241.1z"/>
</g>
<g>
<path class="st9" d="M0,301.7v21c0,14.2,11.5,25.7,25.7,25.7h10.5v-21H25.7C11.5,327.4,0,315.9,0,301.7z"/>
</g>
<g>
<path class="st1" d="M36.2,345.6v105.5c0,13,10.5,23.5,23.5,23.5h50.8c13,0,23.5-10.5,23.5-23.5V345.6H36.2z"/>
</g>
<g>
<path class="st0" d="M36.2,429.6V451c0,13,10.5,23.5,23.5,23.5h50.8c13,0,23.5-10.5,23.5-23.5v-21.5c0,13-10.5,23.5-23.5,23.5        H59.7C46.7,453.1,36.2,442.6,36.2,429.6z"/>
</g>
</g>
<polygon class="st3" points="48.6,187 85.1,262.1 121.6,187     "/>
<g>
<path class="st10" d="M46.7,95.3v65.2c0,19.7,16,35.7,35.7,35.7c19.7,0,35.7-16,35.7-35.7V95.3H46.7z"/>
</g>
<g>
<rect class="st11" height="43.1" width="71.3" x="46.7" y="95.3"/>
</g>
<g>
<g>
<path class="st12" d="M147.6,79L118,123.2H46.7V95.7c0-9.2,7.5-16.7,16.7-16.7H147.6z"/>
</g>
<g>
<path class="st13" d="M147.6,79L138.2,93H63.4c-9.2,0-16.7,7.6-16.7,16.8V95.7c0-9.2,7.5-16.7,16.7-16.7H147.6z"/>
</g>
</g>
</g>
</g>
<g>
<g>
<rect class="st14" height="154.6" width="38" x="423.8" y="95.3"/>
</g>
<g>
<rect class="st15" height="124.1" width="38" x="349.7" y="125.8"/>
</g>
<g>
<rect class="st16" height="93.6" width="38" x="275.7" y="156.3"/>
</g>
<g>
<rect class="st17" height="19.1" width="38" x="423.8" y="95.3"/>
</g>
<g>
<rect class="st18" height="19.1" width="38" x="349.7" y="230.8"/>
</g>
<g>
<rect class="st19" height="19.1" width="38" x="275.7" y="230.8"/>
</g>
<g>
<rect class="st20" height="19.1" width="38" x="423.8" y="230.8"/>
</g>
<g>
<rect class="st21" height="19.1" width="38" x="349.7" y="125.8"/>
</g>
<g>
<rect class="st10" height="19.1" width="38" x="275.7" y="156.3"/>
</g>
<g>
<path class="st22" d="M461.8,254h-38c-2.2,0-4.1-1.8-4.1-4.1V95.3c0-2.2,1.8-4.1,4.1-4.1h38c2.2,0,4.1,1.8,4.1,4.1v154.6      C465.9,252.2,464,254,461.8,254z M427.9,245.9h29.9V99.3h-29.9V245.9z"/>
</g>
<g>
<path class="st22" d="M387.7,254h-38c-2.2,0-4.1-1.8-4.1-4.1V125.8c0-2.2,1.8-4.1,4.1-4.1h38c2.2,0,4.1,1.8,4.1,4.1v124.1      C391.8,252.2,390,254,387.7,254z M353.8,245.9h29.9v-116h-29.9V245.9z"/>
</g>
<g>
<path class="st22" d="M313.6,254h-38c-2.2,0-4.1-1.8-4.1-4.1v-93.6c0-2.2,1.8-4.1,4.1-4.1h38c2.2,0,4.1,1.8,4.1,4.1v93.6      C317.7,252.2,315.9,254,313.6,254z M279.7,245.9h29.8v-85.5h-29.8V245.9z"/>
</g>
</g>
</g>
<path class="st22" d="M502.1,78.6c5.5,0,9.9-4.4,9.9-9.9v-22c0-5.5-4.4-9.9-9.9-9.9H166c-5.4,0-9.9,4.4-9.9,9.9v22   c0,5.4,4.4,9.9,9.9,9.9h9.8v105.2h-58.4c4.2-6.2,6.7-13.8,6.7-21.8v-35.5L152.6,84c0.8-1.2,0.9-2.8,0.2-4.1   c-0.7-1.3-2.1-2.1-3.5-2.1H66.4c-11,0-19.9,8.7-20.4,19.6c0,0.2-0.1,0.3-0.1,0.5V162c0,8.2,2.6,15.8,6.9,22.1   C23.3,186.5,0,211.2,0,241.4v80.3c0,16.2,13.2,29.3,29.3,29.3h6.4V448c0,15,12.2,27.1,27.1,27.1h50c14.9,0,27.1-12.2,27.1-27.1   V251.2c0-0.1,0-0.1,0-0.2v-16.9h35.9v35.1H166c-5.4,0-9.9,4.4-9.9,9.9v22c0,5.4,4.4,9.8,9.9,9.8h72.8l-56.4,121.1   c-0.6,1.2-0.5,2.7,0.3,3.8c0.7,1.2,2,1.9,3.4,1.9h30c1.6,0,3-0.9,3.6-2.3L277.6,311H315v122.8c0,2.2,1.8,4,4,4h30c2.2,0,4-1.8,4-4   V311h37.4l58,124.5c0.6,1.4,2,2.3,3.6,2.3h30c1.4,0,2.6-0.7,3.4-1.9c0.7-1.1,0.8-2.6,0.2-3.8L429.3,311h72.8c5.5,0,9.9-4.4,9.9-9.8   v-22c0-5.4-4.4-9.9-9.9-9.9h-9.8V78.6H502.1z M53.9,98.2c0-6.9,5.6-12.5,12.5-12.5h75.4L118,121.3H53.9V98.2z M53.9,129.3h62.2V162   c0,17.2-14,31.1-31.1,31.1c-17.2,0-31.1-14-31.1-31.1V129.3z M117.3,192l-29.5,60.8L58.2,192h1.9c6.8,5.6,15.4,9,24.9,9   c9.5,0,18.1-3.4,24.9-9H117.3z M29.3,342.9c-11.7,0-21.3-9.5-21.3-21.3v-80.3c0-24.6,18-45,41.5-48.8l34.3,70.4v80H43.6v-91.7   c0-2.2-1.8-4-4-4s-4,1.8-4,4v91.7H29.3z M43.6,448v-97.1h40.1v116.2h-21C52.2,467.2,43.6,458.6,43.6,448z M112.8,467.2h-21V350.9   h40.1V448C131.9,458.6,123.3,467.2,112.8,467.2z M135.9,226.2c-2.2,0-4,1.8-4,4v112.8H91.8v-80.1l34.5-71h98.2   c9.5,0,17.2,7.7,17.2,17.2c0,9.4-7.6,17.2-17.2,17.2H135.9z M224.5,183.8h-40.7V78.6h300.5v190.6H183.8v-35.1h40.7   c14,0,25.2-11.4,25.2-25.2C249.7,195.1,238.4,183.8,224.5,183.8z M213.5,429.8h-21.2L247.6,311h21.2L213.5,429.8z M345,429.8h-22   V311h22V429.8z M475.8,429.8h-21.2L399.3,311h21.2L475.8,429.8z M502.1,277.2c1.1,0,1.9,0.8,1.9,1.9v22c0,1-0.8,1.8-1.9,1.8H166   c-1,0-1.9-0.8-1.9-1.8v-22c0-1,0.8-1.9,1.9-1.9H502.1z M166,70.6c-1,0-1.9-0.8-1.9-1.9v-22c0-1.1,0.8-1.9,1.9-1.9h336.1   c1.1,0,1.9,0.8,1.9,1.9v22c0,1-0.8,1.9-1.9,1.9H166z"/>
</g>
</svg>